 <svg  version="1.0" xmlns="http://www.w3.org/2000/svg"  width="276.000000pt" height="256.000000pt" viewBox="0 0 276.000000 256.000000"  preserveAspectRatio="xMidYMid meet">  <g transform="translate(0.000000,256.000000) scale(0.100000,-0.100000)" fill="#27374d" stroke="none"> <path d="M1240 2423 c-19 -2 -84 -8 -145 -15 -60 -6 -122 -12 -136 -13 -14 -1 -30 -4 -35 -7 -20 -12 -90 -32 -102 -30 -7 2 -19 -4 -28 -13 -8 -8 -22 -15 -30 -15 -8 0 -14 -4 -14 -9 0 -5 -16 -12 -35 -15 -19 -4 -39 -14 -44 -24 -5 -9 -13 -14 -17 -10 -3 4 -18 -2 -32 -12 -13 -11 -31 -20 -38 -20 -8 0 -14 -7 -14 -15 0 -8 -6 -15 -13 -15 -7 0 -23 -9 -34 -19 -12 -11 -24 -17 -27 -14 -3 4 -6 -2 -6 -11 0 -11 -5 -16 -13 -13 -7 3 -19 -4 -25 -14 -7 -10 -19 -19 -27 -19 -8 0 -15 -5 -15 -10 0 -6 -17 -28 -38 -48 -59 -58 -102 -113 -102 -128 0 -8 -7 -14 -15 -14 -8 0 -15 -3 -14 -7 2 -15 -14 -53 -22 -53 -8 0 -40 -64 -53 -107 -4 -13 -11 -23 -16 -23 -5 0 -7 -6 -4 -14 3 -7 -2 -21 -12 -30 -9 -9 -14 -19 -11 -22 2 -3 -6 -38 -19 -79 -64 -201 -69 -376 -19 -645 1 -8 10 -32 19 -52 9 -21 16 -46 16 -57 0 -11 4 -21 9 -23 9 -3 55 -99 53 -110 -1 -5 2 -8 7 -8 5 0 20 -21 33 -47 24 -49 71 -105 176 -209 34 -34 62 -67 62 -73 0 -6 8 -11 18 -11 9 0 28 -13 42 -30 14 -16 29 -30 33 -30 5 0 22 -11 39 -25 16 -14 38 -25 48 -25 10 0 22 -5 25 -10 6 -9 81 -53 95 -55 18 -3 87 -29 95 -36 6 -4 20 -8 30 -8 11 0 66 -6 123 -12 79 -9 124 -9 200 1 53 6 108 13 122 14 14 1 32 5 40 9 34 14 136 49 148 50 6 0 12 3 12 7 0 8 92 55 103 52 4 -1 7 3 7 8 0 6 12 16 28 23 35 15 62 39 57 48 -3 4 6 10 20 13 14 4 25 14 25 22 0 11 5 14 16 10 12 -5 15 -2 10 10 -4 10 -2 15 6 12 14 -4 199 178 190 187 -3 3 0 5 6 5 7 0 12 7 12 15 0 8 4 14 8 13 5 -2 41 33 82 77 40 44 80 86 88 93 9 6 13 12 8 12 -4 0 4 11 18 25 14 14 31 25 37 25 7 0 10 3 6 6 -3 3 12 25 34 48 146 151 222 225 230 220 5 -3 9 2 9 10 0 10 6 13 15 10 9 -4 15 0 15 9 0 14 26 32 42 29 4 -1 15 9 24 23 9 14 20 23 24 20 4 -3 13 2 20 10 10 13 8 15 -13 15 -14 0 -29 5 -33 11 -3 6 -16 8 -27 5 -12 -3 -46 1 -77 9 -112 28 -595 28 -641 -1 -7 -4 -22 -9 -33 -10 -65 -8 -131 -25 -134 -34 -2 -5 -8 -8 -13 -5 -4 3 -19 -1 -32 -10 -13 -8 -27 -12 -31 -8 -4 4 -10 2 -15 -5 -4 -6 -20 -14 -37 -16 -40 -5 -84 -24 -84 -35 0 -6 -6 -8 -14 -5 -7 3 -16 -2 -19 -10 -4 -9 -12 -13 -20 -10 -7 2 -26 -7 -41 -21 -15 -14 -32 -23 -37 -20 -5 4 -9 1 -9 -4 0 -6 -6 -11 -13 -11 -7 0 -23 -9 -35 -20 -12 -11 -26 -20 -31 -20 -6 0 -16 -9 -23 -20 -7 -11 -16 -20 -21 -20 -21 0 -165 -146 -235 -239 -37 -49 -100 -166 -130 -243 -6 -15 -14 -60 -17 -100 l-6 -73 20 23 c11 13 24 24 28 25 4 1 7 5 5 10 -1 4 4 7 11 7 7 0 24 11 39 25 15 14 30 25 34 25 4 0 17 11 30 26 13 14 24 22 24 19 0 -3 15 8 33 24 17 17 37 31 43 31 6 0 17 7 25 16 7 8 58 45 113 82 56 36 103 69 106 73 3 4 18 11 33 14 16 4 31 14 34 21 3 8 11 14 19 14 8 0 14 5 14 12 0 6 3 8 6 5 4 -3 16 -1 28 5 11 7 25 12 29 13 4 0 11 5 15 11 4 6 23 19 42 29 19 10 57 32 84 49 27 17 51 31 55 31 3 1 24 11 47 22 54 29 157 63 189 63 30 0 35 -29 5 -37 -11 -3 -20 -9 -20 -13 0 -5 -10 -12 -22 -15 -11 -4 -56 -32 -99 -61 -43 -30 -80 -54 -83 -54 -2 0 -39 -22 -80 -50 -42 -27 -80 -50 -86 -50 -5 0 -10 -4 -10 -8 0 -5 -17 -17 -37 -28 -21 -10 -42 -25 -46 -32 -5 -7 -12 -10 -18 -7 -5 4 -9 1 -9 -5 0 -6 -15 -17 -34 -25 -19 -8 -41 -23 -48 -33 -7 -11 -23 -22 -35 -26 -13 -4 -23 -11 -23 -16 0 -4 -17 -18 -37 -30 -21 -12 -42 -28 -46 -36 -5 -8 -12 -12 -18 -9 -5 4 -9 1 -9 -5 0 -6 -8 -14 -17 -17 -10 -4 -27 -15 -38 -25 -50 -46 -103 -88 -111 -88 -5 0 -15 -9 -22 -20 -7 -11 -19 -20 -27 -20 -8 0 -15 -4 -15 -10 0 -5 -5 -10 -12 -10 -7 0 -21 -9 -33 -19 -58 -55 -74 -66 -98 -66 -15 -1 -27 2 -27 6 0 4 -26 19 -57 35 -32 15 -60 30 -63 34 -3 3 -20 12 -37 19 -18 8 -33 17 -33 20 0 4 -18 17 -40 30 -22 12 -45 30 -52 40 -7 10 -23 21 -35 25 -12 4 -25 16 -28 26 -3 10 -14 22 -24 25 -10 3 -23 17 -29 30 -6 14 -19 25 -27 25 -9 0 -14 4 -11 8 2 4 -13 27 -34 50 -22 23 -37 42 -34 42 2 0 -10 24 -29 53 -18 28 -42 71 -52 94 -10 24 -22 43 -27 43 -4 0 -7 3 -6 8 3 13 -45 157 -54 160 -4 2 -6 7 -4 11 3 4 -1 48 -9 97 -18 106 -19 201 -5 327 6 51 12 101 13 112 1 11 6 23 11 26 5 4 9 21 10 38 0 17 4 31 8 31 3 0 12 17 18 38 35 111 140 279 249 394 40 43 76 76 79 73 3 -3 11 4 19 15 8 11 20 20 28 20 7 0 15 4 17 8 5 12 102 77 111 74 4 -1 7 2 7 6 0 5 18 14 41 21 22 7 43 19 46 27 3 8 12 13 19 10 8 -3 14 -1 14 5 0 6 4 8 9 5 10 -7 104 25 109 37 2 4 8 5 13 1 5 -3 15 -2 21 2 7 5 19 9 28 10 8 1 39 7 69 13 68 14 219 14 336 0 50 -6 99 -11 111 -12 11 -1 27 -7 35 -13 18 -14 130 -49 147 -46 6 2 12 -2 12 -7 0 -11 89 -55 104 -52 4 1 13 -4 20 -12 12 -15 132 -97 141 -97 3 0 19 -16 36 -35 17 -19 37 -35 45 -35 8 0 14 -6 14 -12 0 -7 23 -37 50 -66 27 -29 59 -73 71 -98 13 -24 26 -44 31 -44 4 0 8 -4 8 -10 0 -5 15 -40 33 -77 18 -38 39 -90 46 -116 8 -26 18 -47 23 -47 5 0 7 -4 3 -9 -3 -5 -1 -12 5 -16 6 -4 8 -10 6 -14 -3 -4 4 -43 15 -86 10 -42 19 -79 19 -81 0 -2 9 -4 19 -4 18 0 19 6 14 68 -3 37 -9 72 -14 78 -5 6 -6 14 -2 18 4 4 2 10 -5 15 -6 4 -13 20 -15 37 -2 16 -9 39 -15 51 -7 12 -11 26 -10 30 3 15 -14 63 -23 63 -9 0 -29 40 -35 69 -1 8 -9 18 -16 22 -7 5 -9 9 -3 9 5 0 -1 7 -13 16 -12 8 -22 21 -22 28 0 8 -7 19 -15 26 -9 7 -13 15 -11 17 3 3 -11 20 -30 39 -19 19 -34 38 -34 42 0 15 -114 122 -129 122 -8 0 -11 3 -8 6 8 8 -73 74 -90 74 -7 0 -17 8 -22 18 -9 16 -74 52 -186 103 -27 13 -52 23 -55 24 -38 10 -97 28 -105 33 -5 3 -16 7 -25 8 -26 4 -184 24 -210 27 -14 2 -41 2 -60 0z m-840 -373 c0 -5 -2 -10 -4 -10 -3 0 -8 5 -11 10 -3 6 -1 10 4 10 6 0 11 -4 11 -10z m1970 -780 c52 -5 109 -12 125 -15 17 -4 37 -8 45 -10 8 -2 30 -4 48 -4 39 -1 35 -12 -17 -46 -21 -13 -53 -37 -71 -54 -18 -16 -37 -28 -42 -25 -4 3 -8 1 -8 -5 0 -12 -99 -111 -111 -111 -5 0 -9 -5 -9 -10 0 -12 -43 -62 -114 -132 -27 -26 -47 -48 -44 -48 3 0 -11 -17 -31 -38 -20 -21 -70 -74 -111 -118 -40 -43 -78 -78 -83 -76 -5 1 -6 -2 -3 -7 6 -10 -77 -91 -94 -91 -5 0 -9 -5 -7 -10 3 -15 -185 -171 -200 -166 -7 3 -13 0 -13 -7 0 -11 -42 -38 -75 -47 -5 -2 -15 -10 -21 -18 -6 -9 -17 -17 -25 -18 -8 -1 -43 -12 -79 -24 -36 -12 -96 -27 -135 -35 -89 -16 -359 -15 -376 2 -8 8 -18 9 -30 3 -19 -11 -40 7 -22 19 12 8 106 84 113 91 3 3 26 19 52 35 27 17 48 33 48 38 0 4 6 7 14 7 8 0 17 8 20 18 3 9 18 25 33 34 55 34 68 43 73 49 15 18 109 77 114 72 3 -4 6 1 6 10 0 10 5 17 11 17 6 0 24 11 41 25 16 14 37 25 45 25 9 0 14 3 10 6 -5 6 129 101 145 103 5 1 19 11 32 22 13 12 27 20 31 19 4 -1 11 2 14 8 3 5 29 22 56 38 28 15 78 46 111 69 34 22 87 56 117 75 31 19 56 40 57 46 0 6 -8 20 -17 30 -19 21 -54 23 -106 5 -16 -6 -33 -8 -38 -5 -5 3 -9 1 -9 -3 0 -8 -71 -39 -78 -34 -2 1 -9 -5 -16 -15 -9 -11 -21 -15 -35 -11 -12 3 -21 0 -21 -6 -1 -13 -81 -67 -103 -71 -7 -1 -26 -11 -42 -22 -17 -12 -50 -31 -74 -44 -24 -12 -53 -30 -64 -41 -16 -14 -23 -16 -29 -7 -5 8 -8 9 -8 2 0 -6 -31 -31 -70 -55 -38 -24 -70 -47 -70 -52 0 -4 -5 -5 -10 -2 -5 3 -10 1 -10 -4 0 -6 -4 -11 -10 -11 -6 0 -19 -8 -29 -18 -33 -30 -50 -42 -57 -42 -10 0 -87 -63 -102 -82 -7 -10 -17 -16 -22 -13 -4 3 -10 2 -12 -2 -1 -5 -24 -25 -50 -46 -48 -38 -48 -38 -48 -13 0 61 75 227 144 321 47 64 236 244 277 266 21 10 41 23 44 29 4 6 21 17 38 25 18 8 61 31 97 51 35 19 77 37 93 39 16 2 35 9 43 16 8 6 17 9 21 6 3 -4 20 2 38 13 18 11 50 22 73 25 23 3 51 9 64 14 28 11 31 11 69 11 17 0 28 4 24 10 -4 6 9 11 32 11 130 6 166 8 171 13 8 9 154 7 262 -4z"/> <path d="M1600 346 c0 -2 7 -7 16 -10 8 -3 12 -2 9 4 -6 10 -25 14 -25 6z"/> <path d="M1140 2252 c-30 -1 -62 -5 -70 -9 -8 -3 -25 -5 -37 -4 -12 1 -33 -5 -47 -14 -14 -9 -30 -14 -35 -10 -6 3 -21 -1 -34 -10 -13 -8 -27 -12 -30 -8 -4 3 -16 -2 -27 -12 -11 -10 -20 -15 -20 -11 0 4 -13 -2 -29 -13 -16 -12 -34 -21 -40 -21 -15 0 -50 -20 -73 -42 -10 -10 -25 -18 -33 -18 -8 0 -15 -4 -15 -10 0 -5 -4 -10 -10 -10 -5 0 -19 -10 -32 -22 -13 -13 -34 -30 -47 -39 -24 -15 -24 -16 -8 -39 9 -14 17 -19 17 -12 0 6 5 12 11 12 6 0 8 -9 4 -21 -7 -21 -8 -32 -20 -154 -3 -38 -8 -76 -11 -83 -2 -8 -4 -66 -5 -130 0 -91 4 -130 20 -176 10 -32 17 -66 13 -74 -3 -10 -1 -13 6 -8 6 3 13 2 17 -4 3 -5 1 -10 -6 -10 -8 0 -7 -6 3 -17 24 -28 49 -81 54 -116 11 -83 3 -274 -17 -392 -5 -33 -13 -102 -17 -154 -4 -56 -12 -96 -18 -98 -15 -5 -132 112 -182 180 -45 62 -95 164 -87 177 3 5 0 12 -6 15 -5 4 -8 14 -5 22 3 8 2 12 -3 9 -5 -3 -11 1 -14 8 -3 8 -1 17 6 20 7 2 4 5 -5 5 -11 1 -18 9 -18 21 0 12 -7 35 -16 51 -8 17 -14 45 -13 62 2 18 0 38 -4 45 -20 32 3 318 27 334 8 5 7 8 -1 8 -9 0 -6 14 7 46 11 25 20 57 20 70 0 13 5 24 10 24 6 0 10 7 10 16 0 15 37 91 50 104 3 3 27 38 54 78 27 39 53 72 59 72 6 0 7 3 4 6 -3 4 5 15 18 26 14 11 25 26 25 34 0 22 -15 17 -30 -11 -7 -13 -21 -27 -32 -31 -10 -3 -18 -11 -18 -19 0 -7 -13 -27 -30 -45 -16 -18 -30 -36 -30 -40 0 -5 -7 -15 -14 -23 -18 -18 -89 -147 -81 -147 4 0 -1 -7 -9 -16 -9 -8 -14 -19 -11 -24 7 -12 -27 -133 -40 -142 -6 -5 -10 -78 -10 -205 0 -177 2 -201 19 -225 10 -16 16 -34 13 -42 -3 -8 -1 -16 5 -18 6 -2 12 -17 14 -33 1 -16 8 -31 13 -33 6 -2 9 -8 5 -13 -3 -5 2 -16 11 -25 9 -9 14 -22 11 -30 -3 -7 2 -18 10 -24 8 -7 14 -20 14 -30 0 -15 10 -30 65 -92 8 -10 15 -22 15 -27 0 -17 156 -167 170 -163 8 3 11 -1 8 -9 -3 -8 0 -19 7 -26 15 -13 23 34 31 176 3 47 7 97 9 111 2 14 9 57 15 95 16 100 20 252 8 315 -5 30 -21 75 -35 100 -14 25 -24 45 -23 45 1 0 -1 12 -5 28 -4 15 -12 27 -17 27 -6 0 -8 6 -5 14 3 8 3 17 -1 20 -25 25 -22 344 4 491 12 67 10 90 -8 89 -10 -1 -18 2 -18 7 0 5 7 9 17 9 9 0 13 3 10 7 -4 3 2 11 13 17 11 6 51 33 90 59 38 27 75 45 80 42 6 -4 24 5 41 19 17 14 43 29 57 32 15 3 36 9 47 14 92 37 88 37 272 46 130 7 228 -5 272 -33 13 -8 20 -10 17 -4 -10 15 6 14 40 -4 16 -8 37 -15 46 -15 9 0 18 -4 20 -8 2 -4 33 -22 69 -40 37 -18 75 -41 85 -51 11 -10 24 -16 31 -14 6 2 19 -7 30 -20 10 -13 23 -26 29 -28 26 -10 103 -83 97 -92 -3 -6 -1 -7 4 -4 6 4 30 -19 54 -51 23 -31 46 -58 51 -60 4 -2 8 -12 8 -23 0 -10 4 -19 9 -19 13 0 88 -159 96 -202 3 -21 10 -38 14 -38 5 0 9 -10 8 -22 0 -13 4 -32 8 -42 6 -14 5 -17 -3 -12 -7 4 -12 3 -12 -2 0 -6 -20 -12 -45 -14 -25 -2 -45 1 -45 6 0 4 -6 3 -14 -3 -9 -8 -16 -8 -20 -2 -4 6 -17 6 -36 -1 -23 -7 -34 -7 -46 3 -12 10 -15 10 -12 -1 2 -10 -15 -18 -57 -27 -67 -14 -191 -35 -217 -36 -9 -1 -14 -5 -12 -9 5 -7 -30 -12 -40 -5 -2 1 -12 -5 -22 -14 -11 -9 -37 -20 -58 -23 -21 -4 -50 -14 -62 -23 -13 -8 -24 -11 -24 -7 0 5 -4 5 -8 -1 -11 -15 -93 -57 -99 -51 -9 8 18 37 28 30 5 -3 8 5 6 18 -1 15 3 22 12 20 8 -2 11 3 8 13 -4 8 -3 15 2 15 5 0 12 11 15 25 4 14 11 23 17 19 6 -3 9 0 8 7 -3 16 7 51 28 98 36 80 35 188 -3 306 -16 50 -32 92 -37 93 -4 2 -5 8 -1 13 3 5 0 9 -5 9 -6 0 -11 6 -11 13 0 7 -14 26 -30 42 -17 16 -28 35 -26 42 4 10 1 10 -12 2 -12 -8 -25 -7 -47 2 -40 17 -116 19 -135 4 -8 -7 -25 -16 -37 -19 -21 -7 -93 -96 -77 -96 3 0 0 -7 -7 -16 -7 -9 -14 -21 -16 -28 -1 -6 -9 -30 -17 -53 -9 -23 -17 -85 -19 -140 -2 -54 -6 -104 -10 -110 -4 -6 -3 -14 2 -17 4 -3 11 -27 15 -53 4 -27 13 -56 20 -66 8 -10 11 -28 8 -40 -3 -12 -1 -19 3 -15 10 10 70 -56 91 -99 9 -17 19 -56 23 -86 7 -53 6 -55 -30 -95 -20 -23 -39 -38 -43 -35 -3 4 -6 0 -6 -9 0 -15 -71 -78 -89 -78 -6 0 -10 -3 -9 -7 5 -20 -15 -54 -28 -49 -9 3 -12 1 -9 -4 4 -6 0 -16 -7 -24 -7 -8 -26 -30 -42 -50 -35 -42 -50 -46 -44 -11 3 14 2 28 -3 31 -5 2 -4 16 1 30 6 14 7 31 3 37 -12 20 -15 228 -2 243 9 11 9 14 -1 14 -9 0 -10 3 -1 13 6 8 8 16 5 19 -3 4 1 19 10 36 8 16 12 32 9 36 -4 3 -1 6 5 6 7 0 9 7 5 18 -3 9 -3 14 2 10 4 -4 17 9 27 29 22 40 27 60 32 113 2 19 6 45 10 58 4 12 4 22 -1 22 -4 0 -7 36 -5 79 2 44 -1 95 -6 114 -7 25 -6 39 2 48 8 9 8 10 0 6 -8 -5 -14 6 -17 31 -20 139 -35 179 -72 188 -14 3 -22 10 -19 15 3 5 0 9 -5 9 -6 0 -11 -4 -11 -8 0 -4 -45 -7 -101 -7 -55 1 -102 -2 -105 -7 -3 -4 8 -8 24 -8 l30 0 -1 -230 c-2 -209 0 -230 15 -230 15 0 16 21 14 230 l-2 230 31 0 30 0 -3 -235 c-2 -192 -1 -235 10 -235 11 0 14 44 13 233 l0 234 30 1 30 1 -3 -236 c-1 -131 0 -234 4 -231 3 4 7 107 8 229 1 271 10 290 52 114 20 -86 27 -153 28 -270 0 -165 -6 -217 -29 -240 -28 -28 -47 -64 -39 -76 3 -6 -2 -16 -12 -24 -18 -12 -19 -31 -19 -252 1 -174 4 -246 14 -268 l13 -30 15 38 c8 20 19 37 25 37 5 0 6 5 3 10 -3 6 1 10 9 10 9 0 16 9 16 20 0 11 11 27 25 36 14 9 25 20 25 25 0 5 25 35 55 65 30 31 55 60 55 65 0 5 5 9 10 9 6 0 25 16 43 35 17 19 36 35 42 35 6 0 10 19 9 43 -4 88 -9 127 -17 127 -4 0 -12 11 -17 25 -5 14 -14 25 -20 25 -5 0 -10 5 -10 11 0 7 -12 22 -26 35 -14 13 -23 28 -19 33 3 5 1 12 -5 16 -59 37 -54 400 7 467 9 10 13 18 9 18 -4 0 -1 10 6 23 7 12 11 26 10 30 -1 4 6 7 15 5 10 -2 17 2 16 9 -6 28 123 61 167 42 8 -4 32 -14 52 -22 30 -13 44 -29 68 -77 17 -33 28 -65 25 -70 -4 -6 -2 -10 3 -10 6 0 18 -32 27 -71 21 -84 16 -194 -11 -255 -9 -21 -18 -43 -19 -49 -3 -23 -28 -71 -45 -90 -10 -11 -20 -24 -21 -30 -1 -5 -13 -27 -25 -47 -26 -41 -35 -108 -10 -76 7 10 16 14 20 10 4 -4 12 1 17 11 6 9 14 15 20 12 5 -4 9 -2 9 3 0 5 20 15 44 22 25 7 47 19 50 27 4 8 13 13 21 9 8 -3 17 -1 20 4 4 6 19 10 35 10 15 0 30 7 34 15 3 8 12 12 21 9 8 -4 22 -1 30 6 9 7 25 15 38 17 12 2 49 8 82 13 56 9 127 22 200 36 17 4 66 8 110 10 131 7 131 6 126 40 -1 16 -7 32 -12 35 -5 3 -7 13 -3 22 3 9 2 17 -4 17 -10 0 -16 18 -28 85 -3 17 -9 34 -15 39 -5 6 -9 18 -9 29 0 10 -4 16 -9 13 -8 -5 -31 35 -31 56 0 5 -13 27 -30 48 -16 21 -30 45 -30 54 0 9 -7 16 -15 16 -8 0 -15 4 -15 9 0 13 -50 67 -60 64 -4 -1 -11 9 -14 22 -4 14 -10 24 -14 22 -4 -1 -20 10 -35 26 -15 15 -32 27 -38 27 -5 0 -20 10 -32 23 -12 12 -33 28 -47 35 -14 6 -34 17 -45 24 -52 32 -71 43 -78 43 -4 0 -12 7 -17 15 -5 8 -12 11 -16 7 -4 -4 -16 0 -26 10 -10 9 -21 13 -24 10 -4 -3 -16 -1 -28 5 -11 6 -31 13 -44 14 -13 2 -29 7 -36 13 -20 17 -194 29 -316 23z m-335 -122 c-3 -5 -12 -10 -18 -10 -7 0 -6 4 3 10 19 12 23 12 15 0z"/> <path d="M985 1779 c-4 -6 -5 -12 -2 -15 2 -3 7 2 10 11 7 17 1 20 -8 4z"/> <path d="M590 1256 c0 -2 8 -10 18 -17 15 -13 16 -12 3 4 -13 16 -21 21 -21 13z"/> <path d="M2385 874 c-60 -63 -115 -121 -120 -127 -6 -7 -48 -53 -93 -104 -45 -50 -82 -94 -82 -97 0 -3 -25 -29 -55 -58 -30 -28 -55 -58 -55 -65 0 -7 -6 -13 -13 -13 -14 0 -47 -35 -47 -50 0 -6 -5 -10 -11 -10 -16 0 -59 -36 -52 -44 3 -3 -1 -6 -10 -6 -9 0 -17 -4 -17 -8 0 -5 -12 -15 -27 -23 -16 -8 -37 -22 -47 -31 -11 -10 -24 -18 -28 -18 -5 0 -19 -9 -31 -20 -12 -12 -32 -23 -44 -26 -13 -4 -23 -10 -23 -15 0 -5 1 -9 3 -9 10 0 87 42 92 50 4 6 25 20 48 31 23 12 46 28 50 35 4 8 14 14 22 14 7 0 20 6 27 13 7 6 36 30 63 52 28 21 54 45 58 52 4 7 17 13 27 13 11 0 20 7 20 15 0 9 11 20 24 25 13 4 32 20 44 34 11 14 23 26 27 26 6 0 93 72 160 132 16 16 45 35 63 43 17 9 32 19 32 23 0 12 175 125 247 161 34 17 72 31 85 31 15 0 19 3 12 10 -12 12 -202 80 -224 80 -8 0 -64 -52 -125 -116z m196 73 c39 -4 85 -37 68 -47 -7 -5 -17 -6 -21 -4 -4 3 -8 0 -8 -5 0 -6 -7 -11 -15 -11 -9 0 -21 -4 -28 -10 -31 -26 -125 -83 -150 -92 -15 -6 -26 -12 -23 -15 6 -6 -58 -63 -71 -63 -5 0 -22 -13 -38 -30 -15 -16 -32 -27 -37 -24 -4 3 -8 0 -8 -6 0 -6 -5 -8 -12 -4 -7 4 -8 3 -4 -5 4 -6 0 -14 -9 -17 -8 -4 -36 -26 -62 -50 -50 -48 -75 -58 -46 -20 10 13 24 21 32 18 9 -4 12 -1 7 7 -5 7 2 21 17 34 13 12 28 29 33 38 10 19 76 92 202 226 78 83 90 92 117 88 17 -3 42 -6 56 -8z m-501 -457 c-13 -11 -25 -20 -28 -20 -3 0 3 9 13 20 10 11 23 20 28 20 6 0 0 -9 -13 -20z"/> <path d="M2440 645 c0 -8 -5 -15 -11 -15 -9 0 -93 -67 -147 -117 -7 -7 -19 -13 -25 -13 -7 0 -23 -14 -36 -30 -13 -17 -28 -30 -35 -30 -6 0 -17 -9 -24 -20 -7 -11 -19 -20 -27 -20 -8 0 -19 -9 -25 -20 -6 -11 -17 -20 -25 -20 -7 0 -15 -3 -17 -8 -7 -16 -110 -91 -158 -114 -14 -7 -27 -15 -30 -19 -3 -3 -14 -11 -25 -17 -11 -6 -15 -12 -8 -12 7 0 28 9 46 19 19 11 45 25 58 33 13 7 26 16 29 19 14 15 170 118 170 111 0 -4 6 0 13 9 7 9 23 20 37 24 14 4 33 14 43 23 9 8 17 11 17 7 0 -5 6 0 14 11 8 10 18 16 21 12 4 -4 26 3 49 14 22 12 44 21 49 20 4 -1 7 2 7 8 0 6 7 10 16 10 23 0 114 31 114 39 0 4 16 7 36 8 36 1 75 23 41 23 -9 0 -17 5 -17 11 0 5 -5 7 -10 4 -6 -3 -13 0 -16 8 -3 8 -18 17 -33 20 -16 3 -36 13 -44 22 -20 19 -47 20 -47 0z m35 -29 c7 3 16 1 20 -5 3 -6 15 -11 26 -11 10 0 19 -4 19 -9 0 -13 -108 -54 -125 -47 -9 3 -15 0 -15 -10 0 -11 -6 -13 -20 -9 -13 4 -19 2 -18 -5 2 -8 -59 -39 -80 -40 -5 0 19 22 68 61 25 20 59 49 75 63 17 14 31 22 33 17 2 -6 9 -8 17 -5z"/> </g> </svg> 