<?xml version="1.0" standalone="no"?>
<!DOCTYPE svg PUBLIC "-//W3C//DTD SVG 20010904//EN"
 "http://www.w3.org/TR/2001/REC-SVG-20010904/DTD/svg10.dtd">
<svg version="1.0" xmlns="http://www.w3.org/2000/svg"
 width="276.000000pt" height="256.000000pt" viewBox="0 0 276.000000 256.000000"
 preserveAspectRatio="xMidYMid meet">
<metadata>
Created by potrace 1.10, written by Peter Selinger 2001-2011
</metadata>
<g transform="translate(0.000000,256.000000) scale(0.050000,-0.050000)"
fill="#27374d" stroke="none">
<path d="M0 2560 l0 -2560 2760 0 2760 0 0 2560 0 2560 -2760 0 -2760 0 0
-2560z m2810 2261 c228 -32 355 -63 500 -121 125 -50 398 -189 445 -227 30
-24 92 -68 138 -97 102 -66 441 -404 457 -457 7 -22 20 -39 29 -39 9 0 36 -40
59 -90 23 -49 50 -90 60 -90 16 0 87 -146 91 -186 0 -8 11 -22 23 -30 12 -8
34 -50 48 -94 14 -44 30 -93 36 -110 6 -16 9 -38 6 -47 -2 -10 7 -30 20 -45
12 -15 16 -28 8 -28 -8 0 -6 -11 6 -25 60 -73 80 -375 25 -375 -42 0 -45 6
-91 210 -190 837 -724 1418 -1551 1691 -501 165 -1166 115 -1632 -122 -41 -22
-87 -39 -101 -39 -14 0 -26 -9 -26 -20 0 -11 -11 -21 -25 -21 -14 -1 -65 -33
-115 -70 -49 -38 -110 -78 -136 -89 -25 -10 -50 -33 -57 -50 -6 -16 -22 -30
-35 -30 -62 0 -532 -583 -532 -660 0 -10 -20 -52 -45 -94 -211 -356 -273
-1073 -134 -1559 52 -185 177 -481 224 -531 14 -14 41 -58 61 -97 57 -111 296
-376 467 -516 117 -96 275 -203 299 -203 14 0 28 -7 31 -15 11 -23 265 -145
304 -145 40 0 150 73 189 125 14 19 39 35 55 35 16 0 29 9 29 20 0 11 13 20
30 20 16 0 41 18 55 40 13 22 33 40 42 40 17 0 134 95 224 181 22 21 50 39 62
39 12 0 46 23 76 51 48 44 127 101 248 179 17 11 48 40 69 65 20 25 47 45 59
45 13 0 85 43 161 95 76 52 153 104 170 115 18 11 99 63 180 115 81 52 151 95
156 95 4 0 78 47 164 105 86 58 194 123 240 145 119 57 118 119 -2 105 -102
-11 -408 -137 -531 -218 -47 -32 -124 -77 -170 -100 -45 -23 -89 -52 -97 -65
-8 -12 -22 -22 -30 -23 -23 -1 -151 -69 -186 -99 -16 -14 -52 -32 -78 -40 -27
-8 -66 -30 -86 -49 -20 -19 -61 -47 -91 -62 -30 -16 -122 -78 -205 -138 -82
-61 -165 -120 -182 -131 -83 -51 -152 -104 -190 -145 -24 -25 -48 -45 -55 -45
-12 0 -83 -56 -151 -120 -18 -17 -54 -48 -80 -70 l-48 -40 12 141 c12 154 21
183 136 419 132 273 569 773 724 828 12 4 40 25 63 46 22 21 61 43 87 49 26 7
71 34 99 60 28 26 64 47 80 47 16 0 53 17 82 37 29 21 89 49 133 63 44 14 94
31 110 37 17 6 39 12 50 14 11 2 55 19 99 38 70 31 206 64 322 79 23 2 53 12
68 22 113 69 1340 43 1492 -32 23 -11 50 -19 60 -17 55 11 71 -1 42 -31 -17
-16 -38 -30 -48 -30 -11 0 -35 -18 -55 -40 -20 -22 -48 -40 -63 -40 -15 0 -38
-18 -52 -40 -13 -22 -36 -40 -50 -40 -14 0 -25 -9 -25 -20 0 -11 -13 -20 -28
-20 -39 0 -512 -482 -512 -521 0 -11 -10 -19 -22 -19 -13 0 -55 -38 -95 -85
-289 -335 -886 -935 -932 -935 -17 0 -31 -10 -31 -21 0 -28 -51 -79 -79 -79
-11 0 -39 -18 -61 -40 -22 -22 -40 -36 -40 -30 0 11 -186 -91 -200 -110 -5 -8
-77 -35 -160 -60 -82 -25 -159 -52 -170 -60 -85 -62 -940 -63 -1020 -1 -11 9
-82 35 -158 60 -76 24 -166 64 -200 90 -34 25 -81 52 -104 59 -24 7 -59 31
-78 53 -20 21 -44 39 -54 39 -10 0 -47 27 -82 60 -35 33 -69 60 -76 60 -16 0
-250 235 -328 329 -33 40 -80 94 -105 121 -25 26 -45 56 -45 66 0 10 -25 53
-55 96 -31 43 -73 119 -94 168 -21 50 -49 104 -63 120 -13 17 -30 62 -38 100
-8 39 -25 88 -37 110 -12 22 -25 54 -27 70 -64 373 -68 425 -58 660 16 344 29
452 65 548 17 45 41 123 54 174 13 51 35 107 50 124 14 18 21 42 14 53 -8 12
-4 21 7 21 11 0 30 35 41 77 12 42 48 116 81 165 32 48 59 99 60 113 0 14 9
25 19 25 11 0 33 25 48 55 16 30 57 87 92 125 124 139 204 220 218 220 7 0 38
26 68 58 31 33 91 75 135 95 43 21 79 47 79 58 1 20 132 94 149 84 4 -3 24 10
45 28 20 19 62 40 92 48 31 7 60 21 66 31 16 26 130 73 209 86 39 7 93 24 121
39 28 14 91 28 140 31 49 2 179 16 289 30 263 35 259 35 560 -7z m-46 -330
c62 -7 141 -26 174 -43 34 -17 70 -25 80 -19 11 6 25 3 32 -9 7 -11 28 -20 47
-20 35 0 162 -62 313 -152 44 -26 109 -61 145 -78 36 -17 76 -48 90 -70 13
-22 36 -40 49 -40 13 0 47 -22 74 -50 28 -27 60 -50 71 -50 12 0 21 -9 21 -20
0 -10 31 -48 70 -82 38 -35 74 -80 81 -101 6 -20 25 -37 40 -37 16 0 29 -14
29 -31 0 -17 26 -65 58 -105 32 -41 64 -95 72 -121 8 -26 36 -79 62 -118 26
-39 49 -81 49 -93 4 -55 22 -122 48 -180 40 -86 79 -230 67 -242 -5 -6 -94
-11 -198 -12 -103 -1 -228 -10 -278 -21 -111 -24 -253 -51 -410 -77 -66 -10
-141 -23 -166 -27 -26 -4 -57 -18 -69 -30 -13 -13 -44 -23 -69 -23 -25 0 -46
-9 -46 -20 0 -11 -26 -20 -59 -20 -32 0 -64 -9 -71 -20 -7 -12 -21 -15 -32 -9
-10 6 -41 -6 -69 -28 -28 -22 -77 -46 -110 -53 -32 -7 -59 -21 -59 -32 0 -10
-13 -18 -30 -18 -16 0 -30 -7 -30 -15 0 -21 -98 -64 -108 -48 -13 20 11 123
28 123 8 0 21 16 28 35 18 49 60 119 97 160 31 34 79 133 86 175 2 11 19 55
38 99 70 159 46 651 -32 651 -11 0 -14 9 -7 20 27 44 -115 264 -189 294 -39
15 -89 35 -111 44 -99 41 -330 -25 -330 -94 0 -17 -6 -25 -13 -18 -16 17 -66
-46 -66 -84 -1 -16 -14 -43 -30 -61 -118 -130 -126 -860 -11 -931 11 -7 15
-21 9 -31 -6 -10 12 -40 40 -66 28 -26 51 -58 51 -70 0 -13 9 -23 20 -23 10 0
37 -40 59 -88 44 -97 70 -352 36 -352 -26 0 -415 -391 -415 -417 0 -10 -22
-33 -50 -51 -27 -18 -50 -51 -50 -72 0 -22 -12 -40 -26 -40 -15 0 -45 -43 -68
-95 l-42 -95 -27 60 c-40 92 -38 991 3 1040 16 19 30 45 31 58 3 45 47 129 83
155 41 31 39 18 57 363 8 156 5 292 -8 350 -12 52 -26 130 -31 174 -5 44 -15
103 -22 130 -7 28 -22 89 -34 136 -49 193 -66 78 -59 -385 6 -356 2 -454 -17
-448 -19 7 -24 119 -21 473 l3 464 -56 0 -56 0 0 -473 c0 -361 -6 -476 -25
-482 -20 -7 -25 97 -25 473 l0 482 -55 0 -55 0 7 -460 c7 -459 7 -460 -36
-460 -43 0 -43 2 -40 455 3 449 3 455 -39 461 -33 5 -42 -4 -42 -43 0 -28 -8
-72 -18 -99 -54 -141 -71 -967 -21 -1029 2 -3 6 -12 9 -20 2 -8 16 -46 31 -85
14 -38 24 -70 20 -70 -3 0 18 -43 47 -95 104 -185 111 -525 22 -1015 -5 -27
-15 -144 -22 -260 -11 -183 -21 -313 -26 -338 -4 -18 -393 396 -439 468 -28
44 -68 96 -87 116 -20 19 -36 52 -36 72 0 21 -13 48 -30 62 -16 13 -24 33 -18
44 7 10 -1 34 -18 52 -31 36 -59 110 -64 173 -2 21 -14 42 -26 46 -12 4 -17
21 -11 36 6 16 -5 54 -26 84 -45 66 -57 814 -14 867 12 15 40 100 63 188 40
160 171 450 202 450 10 0 28 26 41 58 13 32 46 79 73 104 26 25 48 51 48 58 0
22 185 207 280 280 50 38 93 77 97 85 3 8 19 15 35 15 15 0 44 16 64 35 19 19
62 47 95 62 32 15 73 35 89 45 96 56 192 98 223 98 19 0 41 10 48 21 7 12 26
17 42 11 16 -7 49 2 73 18 77 50 517 73 798 41z m2413 -2554 c73 -24 174 -61
223 -83 l90 -41 -60 -13 c-118 -26 -650 -339 -650 -382 0 -9 -29 -30 -65 -48
-36 -17 -97 -60 -137 -95 -40 -36 -168 -146 -285 -245 -117 -98 -213 -186
-213 -195 0 -8 -11 -15 -25 -15 -22 -1 -86 -50 -220 -169 -19 -17 -43 -31 -53
-31 -10 0 -22 -7 -25 -17 -9 -21 -370 -263 -393 -263 -10 0 -47 -14 -82 -32
-36 -18 -68 -28 -73 -23 -5 5 32 30 84 56 51 27 102 64 114 84 13 19 32 35 43
35 86 0 519 398 882 810 262 298 303 342 488 533 191 197 178 192 357 134z
m-213 -638 c3 -11 38 -31 76 -45 151 -53 248 -134 160 -134 -21 0 -106 -22
-188 -50 -82 -27 -163 -50 -181 -50 -17 0 -31 -9 -31 -20 0 -11 -7 -18 -15
-16 -44 11 -571 -283 -745 -416 -49 -37 -112 -79 -140 -93 -27 -13 -55 -29
-60 -35 -22 -23 -146 -81 -155 -72 -16 16 16 52 46 52 16 0 29 7 29 16 0 8 25
26 55 39 73 32 142 79 250 170 49 41 95 75 101 75 7 0 34 20 61 45 27 25 74
63 104 85 30 22 80 65 111 95 31 30 64 55 72 55 9 0 102 72 206 160 186 156
230 181 244 139z"/>
<path d="M4317 2430 c-7 -7 -83 -12 -168 -12 -86 0 -166 -6 -178 -14 -23 -15
-90 -24 -176 -24 -34 1 -55 -10 -55 -28 0 -33 -54 -58 -70 -32 -6 9 -31 13
-55 7 -25 -6 -56 -11 -70 -12 -14 -1 -25 -9 -25 -17 0 -9 -17 -12 -38 -8 -54
10 -124 -11 -110 -33 6 -10 4 -16 -6 -14 -52 14 -386 -110 -386 -144 0 -8 -31
-20 -70 -28 -43 -8 -70 -24 -70 -43 0 -17 -9 -25 -20 -18 -11 7 -26 -2 -32
-19 -7 -17 -21 -31 -31 -31 -11 0 -15 8 -9 17 6 9 -2 16 -16 16 -16 0 -23 -14
-17 -36 6 -25 -1 -37 -23 -37 -17 0 -50 -18 -72 -40 -22 -22 -49 -40 -60 -40
-11 0 -20 -10 -20 -23 0 -13 -5 -18 -12 -12 -7 7 -34 -12 -61 -41 -27 -30 -78
-85 -114 -124 -35 -38 -80 -95 -99 -125 -19 -30 -48 -55 -64 -55 -39 0 -38
-59 0 -114 27 -39 27 -41 -11 -31 -27 6 -37 21 -30 40 10 27 7 27 -23 3 -79
-62 -83 -70 -46 -93 22 -14 42 -15 54 -3 10 10 46 21 80 24 35 2 57 13 52 26
-4 13 6 28 24 35 18 7 26 23 18 36 -9 14 -5 18 9 9 12 -8 46 9 74 37 28 28 64
51 81 51 17 0 25 9 18 20 -7 11 5 20 27 20 22 0 44 11 50 25 7 17 10 16 11 -4
2 -21 12 -16 33 15 17 24 48 44 69 44 20 0 43 18 50 39 8 26 23 35 44 27 22
-9 28 -5 18 11 -8 13 -8 23 2 21 50 -9 82 7 102 52 13 28 40 50 61 50 21 0 49
13 62 29 13 16 37 24 52 18 16 -6 29 -1 29 11 0 12 17 22 38 22 21 0 43 14 50
32 7 18 25 27 41 21 16 -6 31 -5 35 3 7 15 203 114 263 133 22 7 33 23 26 40
-9 24 -1 26 39 10 33 -12 46 -12 38 1 -7 11 4 21 24 22 20 1 54 5 76 10 129
27 210 31 210 9 0 -13 8 -18 19 -12 10 6 24 -6 31 -28 7 -24 23 -35 41 -28 21
8 26 2 17 -21 -7 -18 0 -36 17 -43 41 -15 26 -126 -23 -171 -21 -20 -45 -29
-53 -22 -9 8 -9 3 -2 -9 17 -30 -104 -127 -140 -113 -16 6 -27 -3 -27 -21 0
-17 -18 -41 -40 -53 -22 -12 -40 -16 -40 -10 0 6 -20 -7 -44 -29 -24 -23 -83
-60 -130 -83 -47 -23 -81 -50 -75 -60 7 -11 5 -18 -5 -16 -43 8 -69 -5 -60
-29 7 -17 -5 -25 -33 -22 -24 1 -64 -18 -90 -44 -26 -25 -55 -42 -64 -37 -8 6
-19 3 -22 -6 -4 -8 -47 -39 -97 -68 -49 -29 -110 -72 -135 -95 -25 -23 -45
-36 -45 -28 0 8 -13 -3 -29 -24 -17 -22 -30 -32 -30 -23 -1 8 -12 6 -26 -6
-89 -78 -303 -218 -318 -208 -10 6 -16 3 -12 -6 3 -9 -15 -43 -40 -74 -25 -32
-45 -45 -46 -30 0 20 -6 18 -20 -6 -12 -21 -33 -29 -53 -22 -21 8 -28 5 -19
-10 9 -13 -20 -47 -69 -83 -46 -34 -77 -61 -68 -61 9 0 0 -18 -21 -41 -20 -22
-47 -37 -59 -32 -33 13 -25 -74 8 -95 19 -12 36 -7 51 13 17 23 32 26 59 11
19 -11 68 -15 109 -8 40 6 114 14 163 18 147 11 380 79 380 111 0 18 14 24 42
17 61 -16 118 8 67 28 -32 13 -29 15 17 17 32 0 51 10 44 21 -7 11 9 20 38 20
27 0 55 9 62 20 7 12 21 15 32 9 10 -7 17 -2 13 11 -3 13 23 39 58 58 115 63
471 380 455 405 -6 9 4 17 22 17 18 0 27 9 20 20 -7 11 2 20 19 20 17 0 31 10
31 22 0 12 56 79 125 148 151 151 294 310 279 310 -7 0 9 19 33 42 25 23 58
37 73 31 16 -6 34 -3 41 8 6 10 -4 19 -22 19 -35 0 41 99 77 100 9 0 36 19 60
43 24 24 33 37 19 29 -49 -28 -23 5 110 138 74 74 135 141 135 149 0 17 74 93
84 86 21 -16 27 -1 9 22 -13 15 -18 32 -11 38 15 16 -85 33 -192 33 -49 0
-140 5 -200 12 -61 7 -116 7 -123 0z"/>
<path d="M2071 4322 c-6 -11 -41 -25 -76 -33 -36 -7 -74 -21 -85 -29 -11 -9
-59 -26 -106 -39 -47 -13 -91 -36 -97 -52 -6 -16 -19 -24 -28 -18 -21 12 -63
-61 -45 -78 20 -21 49 -15 36 7 -7 11 -3 20 9 20 12 0 32 -22 44 -49 13 -28
31 -45 41 -39 18 12 90 -67 92 -100 0 -10 12 -25 27 -34 14 -8 27 -41 30 -72
6 -81 6 -82 36 -16 l26 60 21 -50 c19 -44 22 -45 25 -10 2 22 5 51 6 65 6 50
214 241 252 231 20 -5 43 1 51 14 8 13 -2 27 -27 33 -32 9 -36 17 -17 37 16
17 28 19 37 4 8 -11 35 -24 60 -28 26 -4 50 -16 54 -27 3 -10 14 -19 24 -19
10 0 12 15 5 33 -9 24 -6 29 14 17 35 -22 110 -32 225 -31 52 1 95 -7 95 -19
0 -11 -13 -20 -29 -20 -53 0 -54 -40 0 -64 45 -21 57 -19 78 9 14 19 31 29 38
21 22 -22 14 -43 -19 -50 -26 -5 -22 -17 21 -64 49 -52 146 -239 180 -347 7
-25 23 -45 34 -45 12 0 17 -54 12 -141 -5 -77 -1 -129 8 -115 9 14 17 44 17
66 0 30 5 33 18 13 21 -34 4 -108 -31 -129 -19 -11 -23 -52 -14 -162 8 -99 5
-151 -11 -160 -12 -8 -22 -1 -22 16 0 16 -9 35 -20 42 -11 7 -18 -9 -16 -39 3
-28 17 -51 32 -51 14 0 21 -9 13 -21 -7 -11 -2 -34 12 -50 13 -16 15 -29 5
-29 -11 0 -29 20 -40 45 -20 43 -21 43 -21 -12 0 -62 -13 -61 194 -16 49 10
100 34 113 52 17 24 28 27 39 10 8 -13 20 -16 27 -6 25 34 99 66 106 45 5 -14
36 -14 99 0 50 12 122 25 159 31 419 61 376 44 389 153 11 97 -106 352 -205
445 -25 24 -45 54 -46 68 0 14 -8 25 -19 25 -10 0 -23 16 -29 35 -14 43 -294
325 -324 325 -17 0 -296 167 -309 185 -7 9 -34 20 -60 25 -27 5 -52 19 -56 30
-4 13 -19 13 -45 -1 -42 -23 -86 -8 -67 22 6 11 -13 19 -43 19 -30 0 -72 15
-93 34 -51 47 -669 68 -696 24 -14 -22 -22 -23 -42 -3 -30 30 -50 32 -66 7z
m1269 -1422 c0 -11 -27 -20 -60 -20 -33 0 -60 9 -60 20 0 11 27 20 60 20 33 0
60 -9 60 -20z"/>
<path d="M980 3581 c0 -11 -18 -39 -40 -61 -22 -22 -31 -40 -20 -40 21 0 -33
-99 -66 -122 -10 -7 -17 -18 -16 -25 6 -39 -1 -53 -23 -53 -29 0 -63 -70 -98
-205 -14 -52 -36 -95 -49 -95 -27 0 -28 -12 -31 -517 -1 -210 6 -353 18 -360
11 -7 26 -35 33 -63 15 -54 44 -130 111 -296 23 -58 37 -114 31 -125 -7 -10 2
-19 19 -19 17 0 31 -10 31 -23 0 -55 178 -232 224 -223 55 11 53 -11 66 545 6
236 14 432 18 436 12 12 -67 165 -85 165 -19 0 -17 61 3 93 7 12 1 33 -15 46
-16 13 -24 35 -19 48 5 13 -4 41 -19 62 -27 37 -28 36 -26 -10 2 -27 -6 -51
-17 -53 -20 -5 -20 39 -1 183 5 43 1 89 -9 101 -25 30 -27 437 -3 535 11 44
11 80 1 86 -10 6 -18 2 -18 -10z"/>
<path d="M1980 2733 c0 -19 -13 -39 -30 -46 -16 -6 -25 -19 -19 -28 5 -9 -10
-28 -35 -41 -44 -23 -44 -25 -6 -39 37 -14 36 -16 -12 -35 -57 -23 -83 -83
-56 -127 42 -66 13 -144 -36 -95 -14 14 -26 15 -34 1 -7 -11 2 -34 19 -52 31
-30 36 -242 8 -330 -5 -16 4 -30 21 -31 39 -3 102 50 88 73 -6 10 -1 16 10 12
37 -9 259 228 273 290 9 41 -3 89 -44 171 -30 63 -53 130 -50 149 7 43 -15 44
-70 6 -60 -43 -73 -15 -24 53 31 44 36 65 19 82 -16 16 -22 13 -22 -13z"/>
</g>
</svg>
