<?xml version="1.0" standalone="no"?>
<!DOCTYPE svg PUBLIC "-//W3C//DTD SVG 20010904//EN"
 "http://www.w3.org/TR/2001/REC-SVG-20010904/DTD/svg10.dtd">
<svg version="1.0" xmlns="http://www.w3.org/2000/svg"
 width="276.000000pt" height="256.000000pt" viewBox="0 0 276.000000 256.000000"
 preserveAspectRatio="xMidYMid meet">
<metadata>
Created by potrace 1.10, written by Peter Selinger 2001-2011
</metadata>
<g transform="translate(0.000000,256.000000) scale(0.050000,-0.050000)"
fill="#27374d" stroke="none">
<path d="M2250 4828 c-110 -14 -240 -28 -289 -30 -49 -3 -112 -17 -140 -31
-28 -15 -82 -32 -121 -39 -79 -13 -193 -60 -209 -86 -6 -10 -35 -24 -66 -31
-30 -8 -72 -29 -92 -48 -21 -18 -41 -31 -45 -28 -17 10 -148 -64 -149 -84 0
-11 -36 -37 -79 -58 -44 -20 -104 -62 -135 -95 -30 -32 -61 -58 -68 -58 -14 0
-94 -81 -218 -220 -35 -38 -76 -95 -92 -125 -15 -30 -37 -55 -48 -55 -10 0
-19 -11 -19 -25 -1 -14 -28 -65 -60 -113 -33 -49 -69 -123 -81 -165 -11 -42
-30 -77 -41 -77 -11 0 -15 -9 -7 -21 7 -11 0 -35 -14 -53 -15 -17 -37 -73 -50
-124 -13 -51 -37 -129 -54 -174 -36 -96 -49 -204 -65 -548 -10 -235 -6 -287
58 -660 2 -16 15 -48 27 -70 12 -22 29 -71 37 -110 8 -38 25 -83 38 -100 14
-16 42 -70 63 -120 21 -49 63 -125 94 -168 30 -43 55 -86 55 -96 0 -10 20 -40
45 -66 25 -27 72 -81 105 -121 78 -94 312 -329 328 -329 7 0 41 -27 76 -60 35
-33 72 -60 82 -60 10 0 34 -18 54 -39 19 -22 54 -46 78 -53 23 -7 70 -34 104
-59 34 -26 124 -66 200 -90 76 -25 147 -51 158 -60 80 -62 935 -61 1020 1 11
8 88 35 170 60 83 25 155 52 160 60 14 19 200 121 200 110 0 -6 18 8 40 30 22
22 50 40 61 40 28 0 79 51 79 79 0 11 14 21 31 21 46 0 643 600 932 935 40 47
82 85 95 85 12 0 22 8 22 19 0 39 473 521 512 521 15 0 28 9 28 20 0 11 11 20
25 20 14 0 37 18 50 40 14 22 37 40 52 40 15 0 43 18 63 40 20 22 44 40 55 40
10 0 31 14 48 30 29 30 13 42 -42 31 -10 -2 -37 6 -60 17 -152 75 -1379 101
-1492 32 -15 -10 -45 -20 -68 -22 -116 -15 -252 -48 -322 -79 -44 -19 -88 -36
-99 -38 -11 -2 -33 -8 -50 -14 -16 -6 -66 -23 -110 -37 -44 -14 -104 -42 -133
-63 -29 -20 -66 -37 -82 -37 -16 0 -52 -21 -80 -47 -28 -26 -73 -53 -99 -60
-26 -6 -65 -28 -87 -49 -23 -21 -51 -42 -63 -46 -155 -55 -592 -555 -724 -828
-115 -236 -124 -265 -136 -419 l-12 -141 48 40 c26 22 62 53 80 70 68 64 139
120 151 120 7 0 31 20 55 45 38 41 107 94 190 145 17 11 100 70 182 131 83 60
175 122 205 138 30 15 71 43 91 62 20 19 59 41 86 49 26 8 62 26 78 40 35 30
163 98 186 99 8 1 22 11 30 23 8 13 52 42 97 65 46 23 123 68 170 100 123 81
429 207 531 218 120 14 121 -48 2 -105 -46 -22 -154 -87 -240 -145 -86 -58
-160 -105 -164 -105 -5 0 -75 -43 -156 -95 -81 -52 -162 -104 -180 -115 -17
-11 -94 -63 -170 -115 -76 -52 -148 -95 -161 -95 -12 0 -39 -20 -59 -45 -21
-25 -52 -54 -69 -65 -121 -78 -200 -135 -248 -179 -30 -28 -64 -51 -76 -51
-12 0 -40 -18 -62 -39 -90 -86 -207 -181 -224 -181 -9 0 -29 -18 -42 -40 -14
-22 -39 -40 -55 -40 -17 0 -30 -9 -30 -20 0 -11 -13 -20 -29 -20 -16 0 -41
-16 -55 -35 -39 -52 -149 -125 -189 -125 -39 0 -293 122 -304 145 -3 8 -17 15
-31 15 -24 0 -182 107 -299 203 -171 140 -410 405 -467 516 -20 39 -47 83 -61
97 -47 50 -172 346 -224 531 -139 486 -77 1203 134 1559 25 42 45 84 45 94 0
77 470 660 532 660 13 0 29 14 35 30 7 17 32 40 57 50 26 11 87 51 136 89 50
37 101 69 115 70 14 0 25 10 25 21 0 11 12 20 26 20 14 0 60 17 101 39 466
237 1131 287 1632 122 827 -273 1361 -854 1551 -1691 46 -204 49 -210 91 -210
55 0 35 302 -25 375 -12 14 -14 25 -6 25 8 0 4 13 -8 28 -13 15 -22 35 -20 45
3 9 0 31 -6 47 -6 17 -22 66 -36 110 -14 44 -36 86 -48 94 -12 8 -23 22 -23
30 -4 40 -75 186 -91 186 -10 0 -37 41 -60 90 -23 50 -50 90 -59 90 -9 0 -22
17 -29 39 -16 53 -355 391 -457 457 -46 29 -108 73 -138 97 -47 38 -320 177
-445 227 -145 58 -272 89 -500 121 -301 42 -297 42 -560 7z m2390 -2410 c107
0 207 -17 192 -33 -7 -6 -2 -23 11 -38 18 -23 12 -38 -9 -22 -10 7 -84 -69
-84 -86 0 -8 -61 -75 -135 -149 -133 -133 -159 -166 -110 -138 14 8 5 -5 -19
-29 -24 -24 -51 -43 -60 -43 -36 -1 -112 -100 -77 -100 18 0 28 -9 22 -19 -7
-11 -25 -14 -41 -8 -15 6 -48 -8 -73 -31 -24 -23 -40 -42 -33 -42 15 0 -128
-159 -279 -310 -69 -69 -125 -136 -125 -148 0 -12 -14 -22 -31 -22 -17 0 -26
-9 -19 -20 7 -11 -2 -20 -20 -20 -18 0 -28 -8 -22 -17 16 -25 -340 -342 -455
-405 -35 -19 -61 -45 -58 -58 4 -13 -3 -18 -13 -11 -11 6 -25 3 -32 -9 -7 -11
-35 -20 -62 -20 -29 0 -45 -9 -38 -20 7 -11 -12 -21 -44 -21 -46 -2 -49 -4
-17 -17 51 -20 -6 -44 -67 -28 -28 7 -42 1 -42 -17 0 -32 -233 -100 -380 -111
-49 -4 -123 -12 -163 -18 -41 -7 -90 -3 -109 8 -27 15 -42 12 -59 -11 -15 -20
-32 -25 -51 -13 -33 21 -41 108 -8 95 12 -5 39 10 59 32 21 23 30 41 21 41 -9
0 22 27 68 61 49 36 78 70 69 83 -9 15 -2 18 19 10 20 -7 41 1 53 22 14 24 20
26 20 6 1 -15 21 -2 46 30 25 31 43 65 40 74 -4 9 2 12 12 6 15 -10 229 130
318 208 14 12 25 14 26 6 0 -9 13 1 30 23 16 21 29 32 29 24 0 -8 20 5 45 28
25 23 86 66 135 95 50 29 93 60 97 68 3 9 14 12 22 6 9 -5 38 12 64 37 26 26
66 45 90 44 28 -3 40 5 33 22 -9 24 17 37 60 29 10 -2 12 5 5 16 -6 10 28 37
75 60 47 23 106 60 130 83 24 22 44 35 44 29 0 -6 18 -2 40 10 22 12 40 36 40
53 0 18 11 27 27 21 36 -14 157 83 140 113 -7 12 -7 17 2 9 8 -7 32 2 53 22
49 45 64 156 23 171 -17 7 -24 25 -17 43 9 23 4 29 -17 21 -18 -7 -34 4 -41
28 -7 22 -21 34 -31 28 -11 -6 -19 -1 -19 12 0 22 -81 18 -210 -9 -22 -5 -56
-9 -76 -10 -20 -1 -31 -11 -24 -22 8 -13 -5 -13 -38 -1 -40 16 -48 14 -39 -10
7 -17 -4 -33 -26 -40 -60 -19 -256 -118 -263 -133 -4 -8 -19 -9 -35 -3 -16 6
-34 -3 -41 -21 -7 -18 -29 -32 -50 -32 -21 0 -38 -10 -38 -22 0 -12 -13 -17
-29 -11 -15 6 -39 -2 -52 -18 -13 -16 -41 -29 -62 -29 -21 0 -48 -22 -61 -50
-20 -45 -52 -61 -102 -52 -10 2 -10 -8 -2 -21 10 -16 4 -20 -18 -11 -21 8 -36
-1 -44 -27 -7 -21 -30 -39 -50 -39 -21 0 -52 -20 -69 -44 -21 -31 -31 -36 -33
-15 -1 20 -4 21 -11 4 -6 -14 -28 -25 -50 -25 -22 0 -34 -9 -27 -20 7 -11 -1
-20 -18 -20 -17 0 -53 -23 -81 -51 -28 -28 -62 -45 -74 -37 -14 9 -18 5 -9 -9
8 -13 0 -29 -18 -36 -18 -7 -28 -22 -24 -35 5 -13 -17 -24 -52 -26 -34 -3 -70
-14 -80 -24 -12 -12 -32 -11 -54 3 -37 23 -33 31 46 93 30 24 33 24 23 -3 -7
-19 3 -34 30 -40 38 -10 38 -8 11 31 -38 55 -39 114 0 114 16 0 45 25 64 55
19 30 64 87 99 125 36 39 87 94 114 124 27 29 54 48 61 41 7 -6 12 -1 12 12 0
13 9 23 20 23 11 0 38 18 60 40 22 22 55 40 72 40 22 0 29 12 23 37 -6 22 1
36 17 36 14 0 22 -7 16 -16 -6 -9 -2 -17 9 -17 10 0 24 14 31 31 6 17 21 26
32 19 11 -7 20 1 20 18 0 19 27 35 70 43 39 8 70 20 70 28 0 34 334 158 386
144 10 -2 12 4 6 14 -14 22 56 43 110 33 21 -4 38 -1 38 8 0 8 11 16 25 17 14
1 45 6 70 12 24 6 49 2 55 -7 16 -26 70 -1 70 32 0 18 21 29 55 28 86 0 153 9
176 24 12 8 92 14 178 14 85 0 161 5 168 12 7 7 62 7 123 0 60 -7 151 -12 200
-12z"/>
<path d="M2200 4494 c-106 -8 -209 -28 -234 -44 -24 -16 -57 -25 -73 -18 -16
6 -35 1 -42 -11 -7 -11 -29 -21 -48 -21 -31 0 -127 -42 -223 -98 -16 -10 -57
-30 -89 -45 -33 -15 -76 -43 -95 -62 -20 -19 -49 -35 -64 -35 -16 0 -32 -7
-35 -15 -4 -8 -47 -47 -97 -85 -95 -73 -280 -258 -280 -280 0 -7 -22 -33 -48
-58 -27 -25 -60 -72 -73 -104 -13 -32 -31 -58 -41 -58 -31 0 -162 -290 -202
-450 -23 -88 -51 -173 -63 -188 -43 -53 -31 -801 14 -867 21 -30 32 -68 26
-84 -6 -15 -1 -32 11 -36 12 -4 24 -25 26 -46 5 -63 33 -137 64 -173 17 -18
25 -42 18 -52 -6 -11 2 -31 18 -44 17 -14 30 -41 30 -62 0 -20 16 -53 36 -72
19 -20 59 -72 87 -116 46 -72 435 -486 439 -468 5 25 15 155 26 338 7 116 17
233 22 260 89 490 82 830 -22 1015 -29 52 -50 95 -47 95 4 0 -6 32 -20 70 -15
39 -29 77 -31 85 -3 8 -7 17 -9 20 -50 62 -33 888 21 1029 10 27 18 71 18 99
0 39 9 48 42 43 42 -6 42 -12 39 -461 -3 -453 -3 -455 40 -455 43 0 43 1 36
460 l-7 460 55 0 55 0 0 -482 c0 -376 5 -480 25 -473 19 6 25 121 25 482 l0
473 56 0 56 0 -3 -464 c-3 -354 2 -466 21 -473 19 -6 23 92 17 448 -7 463 10
578 59 385 12 -47 27 -108 34 -136 7 -27 17 -86 22 -130 5 -44 19 -122 31
-174 13 -58 16 -194 8 -350 -18 -345 -16 -332 -57 -363 -36 -26 -80 -110 -83
-155 -1 -13 -15 -39 -31 -58 -41 -49 -43 -948 -3 -1040 l27 -60 42 95 c23 52
53 95 68 95 14 0 26 18 26 40 0 21 23 54 50 72 28 18 50 41 50 51 0 26 389
417 415 417 34 0 8 255 -36 352 -22 48 -49 88 -59 88 -11 0 -20 10 -20 23 0
12 -23 44 -51 70 -28 26 -46 56 -40 66 6 10 2 24 -9 31 -115 71 -107 801 11
931 16 18 29 45 30 61 0 38 50 101 66 84 7 -7 13 1 13 18 0 69 231 135 330 94
22 -9 72 -29 111 -44 74 -30 216 -250 189 -294 -7 -11 -4 -20 7 -20 78 0 102
-492 32 -651 -19 -44 -36 -88 -38 -99 -7 -42 -55 -141 -86 -175 -37 -41 -79
-111 -97 -160 -7 -19 -20 -35 -28 -35 -17 0 -41 -103 -28 -123 10 -16 108 27
108 48 0 8 14 15 30 15 17 0 30 8 30 18 0 11 27 25 59 32 33 7 82 31 110 53
28 22 59 34 69 28 11 -6 25 -3 32 9 7 11 39 20 71 20 33 0 59 9 59 20 0 11 21
20 46 20 25 0 56 10 69 23 12 12 43 26 69 30 25 4 100 17 166 27 157 26 299
53 410 77 50 11 175 20 278 21 104 1 193 6 198 12 12 12 -27 156 -67 242 -26
58 -44 125 -48 180 0 12 -23 54 -49 93 -26 39 -54 92 -62 118 -8 26 -40 80
-72 121 -32 40 -58 88 -58 105 0 17 -13 31 -29 31 -15 0 -34 17 -40 37 -7 21
-43 66 -81 101 -39 34 -70 72 -70 82 0 11 -9 20 -21 20 -11 0 -43 23 -71 50
-27 28 -61 50 -74 50 -13 0 -36 18 -49 40 -14 22 -54 53 -90 70 -36 17 -101
52 -145 78 -151 90 -278 152 -313 152 -19 0 -40 9 -47 20 -7 12 -21 15 -32 9
-10 -6 -46 2 -80 19 -108 54 -414 73 -738 46z m-63 -179 c20 -20 28 -19 42 3
27 44 645 23 696 -24 21 -19 63 -34 93 -34 30 0 49 -8 43 -19 -19 -30 25 -45
67 -22 26 14 41 14 45 1 4 -11 29 -25 56 -30 26 -5 53 -16 60 -25 13 -18 292
-185 309 -185 30 0 310 -282 324 -325 6 -19 19 -35 29 -35 11 0 19 -11 19 -25
1 -14 21 -44 46 -68 99 -93 216 -348 205 -445 -13 -109 30 -92 -389 -153 -37
-6 -109 -19 -159 -31 -63 -14 -94 -14 -99 0 -7 21 -81 -11 -106 -45 -7 -10
-19 -7 -27 6 -11 17 -22 14 -39 -10 -13 -18 -64 -42 -113 -52 -207 -45 -194
-46 -194 16 0 55 1 55 21 12 11 -25 29 -45 40 -45 10 0 8 13 -5 29 -14 16 -19
39 -12 50 8 12 1 21 -13 21 -15 0 -29 23 -32 51 -2 30 5 46 16 39 11 -7 20
-26 20 -42 0 -17 10 -24 22 -16 16 9 19 61 11 160 -9 110 -5 151 14 162 35 21
52 95 31 129 -13 20 -18 17 -18 -13 0 -22 -8 -52 -17 -66 -9 -14 -13 38 -8
115 5 87 0 141 -12 141 -11 0 -27 20 -34 45 -34 108 -131 295 -180 347 -43 47
-47 59 -21 64 33 7 41 28 19 50 -7 8 -24 -2 -38 -21 -21 -28 -33 -30 -78 -9
-54 24 -53 64 0 64 16 0 29 9 29 20 0 12 -43 20 -95 19 -115 -1 -190 9 -225
31 -20 12 -23 7 -14 -17 7 -18 5 -33 -5 -33 -10 0 -21 9 -24 19 -4 11 -28 23
-54 27 -25 4 -52 17 -60 28 -9 15 -21 13 -37 -4 -19 -20 -15 -28 17 -37 25 -6
35 -20 27 -33 -8 -13 -31 -19 -51 -14 -38 10 -246 -181 -252 -231 -1 -14 -4
-43 -6 -65 -3 -35 -6 -34 -25 10 l-21 50 -26 -60 c-30 -66 -30 -65 -36 16 -3
31 -16 64 -30 72 -15 9 -27 24 -27 34 -2 33 -74 112 -92 100 -10 -6 -28 11
-41 39 -12 27 -32 49 -44 49 -12 0 -16 -9 -9 -20 13 -22 -16 -28 -36 -7 -18
17 24 90 45 78 9 -6 22 2 28 18 6 16 50 39 97 52 47 13 95 30 106 39 11 8 49
22 85 29 35 8 70 22 76 33 16 25 36 23 66 -7z m-1140 -810 c-24 -98 -22 -505
3 -535 10 -12 14 -58 9 -101 -19 -144 -19 -188 1 -183 11 2 19 26 17 53 -2 46
-1 47 26 10 15 -21 24 -49 19 -62 -5 -13 3 -35 19 -48 16 -13 22 -34 15 -46
-20 -32 -22 -93 -3 -93 18 0 97 -153 85 -165 -4 -4 -12 -200 -18 -436 -13
-556 -11 -534 -66 -545 -46 -9 -224 168 -224 223 0 13 -14 23 -31 23 -17 0
-26 9 -19 19 6 11 -8 67 -31 125 -67 166 -96 242 -111 296 -7 28 -22 56 -33
63 -12 7 -19 150 -18 360 3 505 4 517 31 517 13 0 35 43 49 95 35 135 69 205
98 205 22 0 29 14 23 53 -1 7 6 18 16 25 33 23 87 122 66 122 -11 0 -2 18 20
40 22 22 40 50 40 61 0 12 8 16 18 10 10 -6 10 -42 -1 -86z m986 -841 c-49
-68 -36 -96 24 -53 55 38 77 37 70 -6 -3 -19 20 -86 50 -149 41 -82 53 -130
44 -171 -14 -62 -236 -299 -273 -290 -11 4 -16 -2 -10 -12 14 -23 -49 -76 -88
-73 -17 1 -26 15 -21 31 28 88 23 300 -8 330 -17 18 -26 41 -19 52 8 14 20 13
34 -1 49 -49 78 29 36 95 -27 44 -1 104 56 127 48 19 49 21 12 35 -38 14 -38
16 6 39 25 13 40 32 35 41 -6 9 3 22 19 28 17 7 30 27 30 46 0 26 6 29 22 13
17 -17 12 -38 -19 -82z"/>
<path d="M3220 2900 c0 -11 27 -20 60 -20 33 0 60 9 60 20 0 11 -27 20 -60 20
-33 0 -60 -9 -60 -20z"/>
<path d="M4820 1803 c-185 -191 -226 -235 -488 -533 -363 -412 -796 -810 -882
-810 -11 0 -30 -16 -43 -35 -12 -20 -63 -57 -114 -84 -52 -26 -89 -51 -84 -56
5 -5 37 5 73 23 35 18 72 32 82 32 23 0 384 242 393 263 3 10 15 17 25 17 10
0 34 14 53 31 134 119 198 168 220 169 14 0 25 7 25 15 0 9 96 97 213 195 117
99 245 209 285 245 40 35 101 78 137 95 36 18 65 39 65 48 0 43 532 356 650
382 l60 13 -90 41 c-110 49 -345 126 -383 125 -15 0 -103 -79 -197 -176z"/>
<path d="M4720 1160 c-104 -88 -197 -160 -206 -160 -8 0 -41 -25 -72 -55 -31
-30 -81 -73 -111 -95 -30 -22 -77 -60 -104 -85 -27 -25 -54 -45 -61 -45 -6 0
-52 -34 -101 -75 -108 -91 -177 -138 -250 -170 -30 -13 -55 -31 -55 -39 0 -9
-13 -16 -29 -16 -30 0 -62 -36 -46 -52 9 -9 133 49 155 72 5 6 33 22 60 35 28
14 91 56 140 93 174 133 701 427 745 416 8 -2 15 5 15 16 0 11 14 20 31 20 18
0 99 23 181 50 82 28 167 50 188 50 88 0 -9 81 -160 134 -38 14 -73 34 -76 45
-14 42 -58 17 -244 -139z"/>
</g>
</svg>
